<svg xmlns="http://www.w3.org/2000/svg" xmlns:xlink="http://www.w3.org/1999/xlink" viewBox="0 0 405.06 293.49"><defs><style>.cls-1{fill:#a7a9ac}.cls-2{fill:url(#radial-gradient)}.cls-3{fill:none}.cls-4{clip-path:url(#clip-path)}.cls-5{fill:#fff}.cls-6{clip-path:url(#clip-path-2)}.cls-7{clip-path:url(#clip-path-3)}.cls-8{fill:url(#linear-gradient)}</style><radialGradient id="radial-gradient" cx="191.41" cy="146.5" r="92.67" gradientUnits="userSpaceOnUse"><stop offset="0" stop-color="#009444"/><stop offset=".35" stop-color="#00632d"/><stop offset="1"/></radialGradient><clipPath id="clip-path"><path d="M295,250.09A146.5,146.5,0,1,1,295,42.9,146.5,146.5,0,0,1,295,250.09Z" class="cls-1"/></clipPath><clipPath id="clip-path-2"><path d="M256.94,212a92.67,92.67,0,1,1,0-131.06A92.68,92.68,0,0,1,256.94,212Z" class="cls-2"/></clipPath><clipPath id="clip-path-3"><path d="M293.49,248.58a144.37,144.37,0,1,1,0-204.17A144.38,144.38,0,0,1,293.49,248.58Z" class="cls-3"/></clipPath><linearGradient id="linear-gradient" x1="23.63" x2="391.06" y1="147.2" y2="147.2" gradientUnits="userSpaceOnUse"><stop offset="0" stop-color="#fde200"/><stop offset="1" stop-color="#fca824"/></linearGradient></defs><title>Ativo 4</title><g id="Camada_2" data-name="Camada 2"><g id="Layer_1" data-name="Layer 1"><path d="M295,250.09A146.5,146.5,0,1,1,295,42.9,146.5,146.5,0,0,1,295,250.09Z" class="cls-1"/><g class="cls-4"><path d="M395.22,172.64c0,8.17-3.47,18.3-12.72,18.3H42.6c-9.24,0-21.45-10.13-21.45-18.3V122.3c0-8.17,8.62-17.59,17.88-17.59H378.91c9.25,0,16.31,9.42,16.31,17.59Z" class="cls-1"/><path d="M394,172.5c0,8.16-7.5,14.8-16.75,14.8H37.91c-9.26,0-16.76-6.64-16.76-14.8V121.93c0-8.17,7.5-14.8,16.76-14.8H377.26c9.25,0,16.75,6.63,16.75,14.8Z" class="cls-1"/></g><path d="M293.49,248.58a144.37,144.37,0,1,1,0-204.17A144.38,144.38,0,0,1,293.49,248.58Z"/><path d="M276.82,231.91a120.8,120.8,0,1,1,0-170.83A120.8,120.8,0,0,1,276.82,231.91Z" class="cls-5"/><path d="M237.52,146.56,314,70.12A145.47,145.47,0,0,0,268.2,24.21l-76.51,76.52Z" class="cls-5"/><path d="M145.86,146.56,69.13,223.29A145.58,145.58,0,0,0,115,269l76.66-76.65Z" class="cls-5"/><path d="M313.9,223l-76.38-76.39-45.83,45.83,76.43,76.44A145.47,145.47,0,0,0,313.9,223Z" class="cls-5"/><path d="M191.69,100.73,115,24A145.57,145.57,0,0,0,69.08,69.78l76.78,76.78Z" class="cls-5"/><rect width="64.81" height="64.81" x="159.28" y="114.16" class="cls-5" transform="translate(-47.49 178.48) rotate(-45)"/><path d="M265.37,220.45a104.59,104.59,0,1,1,0-147.91A104.61,104.61,0,0,1,265.37,220.45Z"/><path d="M261.62,216.71a99.3,99.3,0,1,1,0-140.43A99.3,99.3,0,0,1,261.62,216.71Z" class="cls-5"/><path d="M256.94,212a92.67,92.67,0,1,1,0-131.06A92.68,92.68,0,0,1,256.94,212Z" class="cls-2"/><g class="cls-6"><rect width="10.66" height="10.66" y="37.64"/><rect width="10.66" height="10.66" x="10.66" y="37.64" class="cls-5"/><rect width="10.66" height="10.66" x="21.32" y="37.64"/><rect width="10.66" height="10.66" x="31.98" y="37.64" class="cls-5"/><rect width="10.66" height="10.66" x="42.64" y="37.64"/><rect width="10.66" height="10.66" x="53.3" y="37.64" class="cls-5"/><rect width="10.66" height="10.66" x="63.96" y="37.64"/><rect width="10.66" height="10.66" x="74.62" y="37.64" class="cls-5"/><rect width="10.66" height="10.66" x="85.28" y="37.64"/><rect width="10.66" height="10.66" x="95.94" y="37.64" class="cls-5"/><rect width="10.66" height="10.66" x="106.6" y="37.64"/><rect width="10.66" height="10.66" x="117.25" y="37.64" class="cls-5"/><rect width="10.66" height="10.66" x="127.92" y="37.64"/><rect width="10.66" height="10.66" x="138.57" y="37.64" class="cls-5"/><rect width="10.66" height="10.66" x="149.23" y="37.64"/><rect width="10.66" height="10.66" x="159.89" y="37.64" class="cls-5"/><rect width="10.66" height="10.66" x="170.55" y="37.64"/><rect width="10.66" height="10.66" x="181.21" y="37.64" class="cls-5"/><rect width="10.66" height="10.66" x="191.87" y="37.64"/><rect width="10.66" height="10.66" x="202.53" y="37.64" class="cls-5"/><rect width="10.66" height="10.66" x="213.19" y="37.64"/><rect width="10.66" height="10.66" x="223.85" y="37.64" class="cls-5"/><rect width="10.66" height="10.66" x="234.51" y="37.64"/><rect width="10.66" height="10.66" x="245.17" y="37.64" class="cls-5"/><rect width="10.66" height="10.66" x="255.83" y="37.64"/><rect width="10.66" height="10.66" x="266.49" y="37.64" class="cls-5"/><rect width="10.66" height="10.66" x="277.15" y="37.64"/><rect width="10.66" height="10.66" x="287.81" y="37.64" class="cls-5"/><rect width="10.66" height="10.66" x="298.47" y="37.64"/><rect width="10.66" height="10.66" x="309.13" y="37.64" class="cls-5"/><rect width="10.66" height="10.66" x="319.79" y="37.64"/><rect width="10.66" height="10.66" x="330.45" y="37.64" class="cls-5"/><rect width="10.66" height="10.66" x="341.11" y="37.64"/><rect width="10.66" height="10.66" x="351.77" y="37.64" class="cls-5"/><rect width="10.66" height="10.66" x="362.43" y="37.64"/><rect width="10.66" height="10.66" x="373.09" y="37.64" class="cls-5"/><rect width="10.66" height="10.66" x="383.75" y="37.64"/><rect width="10.66" height="10.66" x="10.66" y="48.3"/><rect width="10.66" height="10.66" x="21.32" y="48.3" class="cls-5"/><rect width="10.66" height="10.66" x="31.98" y="48.3"/><rect width="10.66" height="10.66" x="42.64" y="48.3" class="cls-5"/><rect width="10.66" height="10.66" x="53.3" y="48.3"/><rect width="10.66" height="10.66" x="63.96" y="48.3" class="cls-5"/><rect width="10.66" height="10.66" x="74.62" y="48.3"/><rect width="10.66" height="10.66" x="85.28" y="48.3" class="cls-5"/><rect width="10.66" height="10.66" x="95.94" y="48.3"/><rect width="10.66" height="10.66" x="106.6" y="48.3" class="cls-5"/><rect width="10.66" height="10.66" x="117.25" y="48.3"/><rect width="10.66" height="10.66" x="127.92" y="48.3" class="cls-5"/><rect width="10.66" height="10.66" x="138.57" y="48.3"/><rect width="10.66" height="10.66" x="149.23" y="48.3" class="cls-5"/><rect width="10.66" height="10.66" x="159.89" y="48.3"/><rect width="10.66" height="10.66" x="170.55" y="48.3" class="cls-5"/><rect width="10.66" height="10.66" x="181.21" y="48.3"/><rect width="10.66" height="10.66" x="191.87" y="48.3" class="cls-5"/><rect width="10.66" height="10.66" x="202.53" y="48.3"/><rect width="10.66" height="10.66" x="213.19" y="48.3" class="cls-5"/><rect width="10.66" height="10.66" x="223.85" y="48.3"/><rect width="10.66" height="10.66" x="234.51" y="48.3" class="cls-5"/><rect width="10.66" height="10.66" x="245.17" y="48.3"/><rect width="10.66" height="10.66" x="255.83" y="48.3" class="cls-5"/><rect width="10.66" height="10.66" x="266.49" y="48.3"/><rect width="10.66" height="10.66" x="277.15" y="48.3" class="cls-5"/><rect width="10.66" height="10.66" x="287.81" y="48.3"/><rect width="10.66" height="10.66" x="298.47" y="48.3" class="cls-5"/><rect width="10.66" height="10.66" x="309.13" y="48.3"/><rect width="10.66" height="10.66" x="319.79" y="48.3" class="cls-5"/><rect width="10.66" height="10.66" x="330.45" y="48.3"/><rect width="10.66" height="10.66" x="341.11" y="48.3" class="cls-5"/><rect width="10.66" height="10.66" x="351.77" y="48.3"/><rect width="10.66" height="10.66" x="362.43" y="48.3" class="cls-5"/><rect width="10.66" height="10.66" x="373.09" y="48.3"/><rect width="10.66" height="10.66" x="383.75" y="48.3" class="cls-5"/><rect width="10.66" height="10.66" x="394.4" y="48.3"/><rect width="10.66" height="10.66" y="58.96"/><rect width="10.66" height="10.66" x="10.66" y="58.96" class="cls-5"/><rect width="10.66" height="10.66" x="21.32" y="58.96"/><rect width="10.66" height="10.66" x="31.98" y="58.96" class="cls-5"/><rect width="10.66" height="10.66" x="42.64" y="58.96"/><rect width="10.66" height="10.66" x="53.3" y="58.96" class="cls-5"/><rect width="10.66" height="10.66" x="63.96" y="58.96"/><rect width="10.66" height="10.66" x="74.62" y="58.96" class="cls-5"/><rect width="10.66" height="10.66" x="85.28" y="58.96"/><rect width="10.66" height="10.66" x="95.94" y="58.96" class="cls-5"/><rect width="10.66" height="10.66" x="106.6" y="58.96"/><rect width="10.66" height="10.66" x="117.25" y="58.96" class="cls-5"/><rect width="10.66" height="10.66" x="127.92" y="58.96"/><rect width="10.66" height="10.66" x="138.57" y="58.96" class="cls-5"/><rect width="10.66" height="10.66" x="149.23" y="58.96"/><rect width="10.66" height="10.66" x="159.89" y="58.96" class="cls-5"/><rect width="10.66" height="10.66" x="170.55" y="58.96"/><rect width="10.66" height="10.66" x="181.21" y="58.96" class="cls-5"/><rect width="10.66" height="10.66" x="191.87" y="58.96"/><rect width="10.66" height="10.66" x="202.53" y="58.96" class="cls-5"/><rect width="10.66" height="10.66" x="213.19" y="58.96"/><rect width="10.66" height="10.66" x="223.85" y="58.96" class="cls-5"/><rect width="10.66" height="10.66" x="234.51" y="58.96"/><rect width="10.66" height="10.66" x="245.17" y="58.96" class="cls-5"/><rect width="10.66" height="10.66" x="255.83" y="58.96"/><rect width="10.66" height="10.66" x="266.49" y="58.96" class="cls-5"/><rect width="10.66" height="10.66" x="277.15" y="58.96"/><rect width="10.66" height="10.66" x="287.81" y="58.96" class="cls-5"/><rect width="10.66" height="10.66" x="298.47" y="58.96"/><rect width="10.66" height="10.66" x="309.13" y="58.96" class="cls-5"/><rect width="10.66" height="10.66" x="319.79" y="58.96"/><rect width="10.66" height="10.66" x="330.45" y="58.96" class="cls-5"/><rect width="10.66" height="10.66" x="341.11" y="58.96"/><rect width="10.66" height="10.66" x="351.77" y="58.96" class="cls-5"/><rect width="10.66" height="10.66" x="362.43" y="58.96"/><rect width="10.66" height="10.66" x="373.09" y="58.96" class="cls-5"/><rect width="10.66" height="10.66" x="383.75" y="58.96"/><rect width="10.66" height="10.66" x="10.66" y="69.62"/><rect width="10.66" height="10.66" x="21.32" y="69.62" class="cls-5"/><rect width="10.66" height="10.66" x="31.98" y="69.62"/><rect width="10.66" height="10.66" x="42.64" y="69.62" class="cls-5"/><rect width="10.66" height="10.66" x="53.3" y="69.62"/><rect width="10.66" height="10.66" x="63.96" y="69.62" class="cls-5"/><rect width="10.66" height="10.66" x="74.62" y="69.62"/><rect width="10.66" height="10.66" x="85.28" y="69.62" class="cls-5"/><rect width="10.66" height="10.66" x="95.94" y="69.62"/><rect width="10.66" height="10.66" x="106.6" y="69.62" class="cls-5"/><rect width="10.66" height="10.66" x="117.25" y="69.62"/><rect width="10.66" height="10.66" x="127.92" y="69.62" class="cls-5"/><rect width="10.66" height="10.66" x="138.57" y="69.62"/><rect width="10.66" height="10.66" x="149.23" y="69.62" class="cls-5"/><rect width="10.66" height="10.66" x="159.89" y="69.62"/><rect width="10.66" height="10.66" x="170.55" y="69.62" class="cls-5"/><rect width="10.66" height="10.66" x="181.21" y="69.62"/><rect width="10.66" height="10.66" x="191.87" y="69.62" class="cls-5"/><rect width="10.66" height="10.66" x="202.53" y="69.62"/><rect width="10.66" height="10.66" x="213.19" y="69.62" class="cls-5"/><rect width="10.66" height="10.66" x="223.85" y="69.62"/><rect width="10.66" height="10.66" x="234.51" y="69.62" class="cls-5"/><rect width="10.66" height="10.66" x="245.17" y="69.62"/><rect width="10.66" height="10.66" x="255.83" y="69.62" class="cls-5"/><rect width="10.66" height="10.66" x="266.49" y="69.62"/><rect width="10.66" height="10.66" x="277.15" y="69.62" class="cls-5"/><rect width="10.66" height="10.66" x="287.81" y="69.62"/><rect width="10.66" height="10.66" x="298.47" y="69.62" class="cls-5"/><rect width="10.66" height="10.66" x="309.13" y="69.62"/><rect width="10.66" height="10.66" x="319.79" y="69.62" class="cls-5"/><rect width="10.66" height="10.66" x="330.45" y="69.62"/><rect width="10.66" height="10.66" x="341.11" y="69.62" class="cls-5"/><rect width="10.66" height="10.66" x="351.77" y="69.62"/><rect width="10.66" height="10.66" x="362.43" y="69.62" class="cls-5"/><rect width="10.66" height="10.66" x="373.09" y="69.62"/><rect width="10.66" height="10.66" x="383.75" y="69.62" class="cls-5"/><rect width="10.66" height="10.66" x="394.4" y="69.62"/><rect width="10.66" height="10.66" y="80.28"/><rect width="10.66" height="10.66" x="10.66" y="80.28" class="cls-5"/><rect width="10.66" height="10.66" x="21.32" y="80.28"/><rect width="10.66" height="10.66" x="31.98" y="80.28" class="cls-5"/><rect width="10.66" height="10.66" x="42.64" y="80.28"/><rect width="10.66" height="10.66" x="53.3" y="80.28" class="cls-5"/><rect width="10.66" height="10.66" x="63.96" y="80.28"/><rect width="10.66" height="10.66" x="74.62" y="80.28" class="cls-5"/><rect width="10.66" height="10.66" x="85.28" y="80.28"/><rect width="10.66" height="10.66" x="95.94" y="80.28" class="cls-5"/><rect width="10.66" height="10.66" x="106.6" y="80.28"/><rect width="10.66" height="10.66" x="117.25" y="80.28" class="cls-5"/><rect width="10.66" height="10.66" x="127.92" y="80.28"/><rect width="10.66" height="10.66" x="138.57" y="80.28" class="cls-5"/><rect width="10.66" height="10.66" x="149.23" y="80.28"/><rect width="10.66" height="10.66" x="159.89" y="80.28" class="cls-5"/><rect width="10.66" height="10.66" x="170.55" y="80.28"/><rect width="10.66" height="10.66" x="181.21" y="80.28" class="cls-5"/><rect width="10.66" height="10.66" x="191.87" y="80.28"/><rect width="10.66" height="10.66" x="202.53" y="80.28" class="cls-5"/><rect width="10.66" height="10.66" x="213.19" y="80.28"/><rect width="10.66" height="10.66" x="223.85" y="80.28" class="cls-5"/><rect width="10.66" height="10.66" x="234.51" y="80.28"/><rect width="10.66" height="10.66" x="245.17" y="80.28" class="cls-5"/><rect width="10.66" height="10.66" x="255.83" y="80.28"/><rect width="10.66" height="10.66" x="266.49" y="80.28" class="cls-5"/><rect width="10.66" height="10.66" x="277.15" y="80.28"/><rect width="10.66" height="10.66" x="287.81" y="80.28" class="cls-5"/><rect width="10.66" height="10.66" x="298.47" y="80.28"/><rect width="10.66" height="10.66" x="309.13" y="80.28" class="cls-5"/><rect width="10.66" height="10.66" x="319.79" y="80.28"/><rect width="10.66" height="10.66" x="330.45" y="80.28" class="cls-5"/><rect width="10.66" height="10.66" x="341.11" y="80.28"/><rect width="10.66" height="10.66" x="351.77" y="80.28" class="cls-5"/><rect width="10.66" height="10.66" x="362.43" y="80.28"/><rect width="10.66" height="10.66" x="373.09" y="80.28" class="cls-5"/><rect width="10.66" height="10.66" x="383.75" y="80.28"/><rect width="10.66" height="10.66" x="10.66" y="90.94"/><rect width="10.66" height="10.66" x="21.32" y="90.94" class="cls-5"/><rect width="10.66" height="10.66" x="31.98" y="90.94"/><rect width="10.66" height="10.66" x="42.64" y="90.94" class="cls-5"/><rect width="10.66" height="10.66" x="53.3" y="90.94"/><rect width="10.66" height="10.66" x="63.96" y="90.94" class="cls-5"/><rect width="10.66" height="10.66" x="74.62" y="90.94"/><rect width="10.66" height="10.66" x="85.28" y="90.94" class="cls-5"/><rect width="10.66" height="10.66" x="95.94" y="90.94"/><rect width="10.66" height="10.66" x="106.6" y="90.94" class="cls-5"/><rect width="10.66" height="10.66" x="117.25" y="90.94"/><rect width="10.66" height="10.66" x="127.92" y="90.94" class="cls-5"/><rect width="10.66" height="10.66" x="138.57" y="90.94"/><rect width="10.66" height="10.66" x="149.23" y="90.94" class="cls-5"/><rect width="10.66" height="10.66" x="159.89" y="90.94"/><rect width="10.66" height="10.66" x="170.55" y="90.94" class="cls-5"/><rect width="10.66" height="10.66" x="181.21" y="90.94"/><rect width="10.66" height="10.66" x="191.87" y="90.94" class="cls-5"/><rect width="10.66" height="10.66" x="202.53" y="90.94"/><rect width="10.66" height="10.66" x="213.19" y="90.94" class="cls-5"/><rect width="10.66" height="10.66" x="223.85" y="90.94"/><rect width="10.66" height="10.66" x="234.51" y="90.94" class="cls-5"/><rect width="10.66" height="10.66" x="245.17" y="90.94"/><rect width="10.66" height="10.66" x="255.83" y="90.94" class="cls-5"/><rect width="10.66" height="10.66" x="266.49" y="90.94"/><rect width="10.66" height="10.66" x="277.15" y="90.94" class="cls-5"/><rect width="10.66" height="10.66" x="287.81" y="90.94"/><rect width="10.66" height="10.66" x="298.47" y="90.94" class="cls-5"/><rect width="10.66" height="10.66" x="309.13" y="90.94"/><rect width="10.66" height="10.66" x="319.79" y="90.94" class="cls-5"/><rect width="10.66" height="10.66" x="330.45" y="90.94"/><rect width="10.66" height="10.66" x="341.11" y="90.94" class="cls-5"/><rect width="10.66" height="10.66" x="351.77" y="90.94"/><rect width="10.66" height="10.66" x="362.43" y="90.94" class="cls-5"/><rect width="10.66" height="10.66" x="373.09" y="90.94"/><rect width="10.66" height="10.66" x="383.75" y="90.94" class="cls-5"/><rect width="10.66" height="10.66" x="394.4" y="90.94"/><rect width="10.66" height="10.66" y="101.6"/><rect width="10.66" height="10.66" x="10.66" y="101.6" class="cls-5"/><rect width="10.66" height="10.66" x="21.32" y="101.6"/><rect width="10.66" height="10.66" x="31.98" y="101.6" class="cls-5"/><rect width="10.66" height="10.66" x="42.64" y="101.6"/><rect width="10.66" height="10.66" x="53.3" y="101.6" class="cls-5"/><rect width="10.66" height="10.66" x="63.96" y="101.6"/><rect width="10.66" height="10.66" x="74.62" y="101.6" class="cls-5"/><rect width="10.66" height="10.66" x="85.28" y="101.6"/><rect width="10.66" height="10.66" x="95.94" y="101.6" class="cls-5"/><rect width="10.66" height="10.66" x="106.6" y="101.6"/><rect width="10.66" height="10.66" x="117.25" y="101.6" class="cls-5"/><rect width="10.66" height="10.66" x="127.92" y="101.6"/><rect width="10.66" height="10.66" x="138.57" y="101.6" class="cls-5"/><rect width="10.66" height="10.66" x="149.23" y="101.6"/><rect width="10.66" height="10.66" x="159.89" y="101.6" class="cls-5"/><rect width="10.66" height="10.66" x="170.55" y="101.6"/><rect width="10.66" height="10.66" x="181.21" y="101.6" class="cls-5"/><rect width="10.66" height="10.66" x="191.87" y="101.6"/><rect width="10.66" height="10.66" x="202.53" y="101.6" class="cls-5"/><rect width="10.66" height="10.66" x="213.19" y="101.6"/><rect width="10.66" height="10.66" x="223.85" y="101.6" class="cls-5"/><rect width="10.66" height="10.66" x="234.51" y="101.6"/><rect width="10.66" height="10.66" x="245.17" y="101.6" class="cls-5"/><rect width="10.66" height="10.66" x="255.83" y="101.6"/><rect width="10.66" height="10.66" x="266.49" y="101.6" class="cls-5"/><rect width="10.66" height="10.66" x="277.15" y="101.6"/><rect width="10.66" height="10.66" x="287.81" y="101.6" class="cls-5"/><rect width="10.66" height="10.66" x="298.47" y="101.6"/><rect width="10.66" height="10.66" x="309.13" y="101.6" class="cls-5"/><rect width="10.66" height="10.66" x="319.79" y="101.6"/><rect width="10.66" height="10.66" x="330.45" y="101.6" class="cls-5"/><rect width="10.66" height="10.66" x="341.11" y="101.6"/><rect width="10.66" height="10.66" x="351.77" y="101.6" class="cls-5"/><rect width="10.66" height="10.66" x="362.43" y="101.6"/><rect width="10.66" height="10.66" x="373.09" y="101.6" class="cls-5"/><rect width="10.66" height="10.66" x="383.75" y="101.6"/><rect width="10.66" height="10.66" x="10.66" y="112.26"/><rect width="10.66" height="10.66" x="21.32" y="112.26" class="cls-5"/><rect width="10.66" height="10.66" x="31.98" y="112.26"/><rect width="10.66" height="10.66" x="42.64" y="112.26" class="cls-5"/><rect width="10.66" height="10.66" x="53.3" y="112.26"/><rect width="10.66" height="10.66" x="63.96" y="112.26" class="cls-5"/><rect width="10.66" height="10.66" x="74.62" y="112.26"/><rect width="10.66" height="10.66" x="85.28" y="112.26" class="cls-5"/><rect width="10.66" height="10.66" x="95.94" y="112.26"/><rect width="10.66" height="10.66" x="106.6" y="112.26" class="cls-5"/><rect width="10.66" height="10.66" x="117.25" y="112.26"/><rect width="10.66" height="10.66" x="127.92" y="112.26" class="cls-5"/><rect width="10.66" height="10.66" x="138.57" y="112.26"/><rect width="10.66" height="10.66" x="149.23" y="112.26" class="cls-5"/><rect width="10.66" height="10.66" x="159.89" y="112.26"/><rect width="10.66" height="10.66" x="170.55" y="112.26" class="cls-5"/><rect width="10.66" height="10.66" x="181.21" y="112.26"/><rect width="10.66" height="10.66" x="191.87" y="112.26" class="cls-5"/><rect width="10.66" height="10.66" x="202.53" y="112.26"/><rect width="10.66" height="10.66" x="213.19" y="112.26" class="cls-5"/><rect width="10.66" height="10.66" x="223.85" y="112.26"/><rect width="10.66" height="10.66" x="234.51" y="112.26" class="cls-5"/><rect width="10.66" height="10.66" x="245.17" y="112.26"/><rect width="10.66" height="10.66" x="255.83" y="112.26" class="cls-5"/><rect width="10.66" height="10.66" x="266.49" y="112.26"/><rect width="10.66" height="10.66" x="277.15" y="112.26" class="cls-5"/><rect width="10.66" height="10.66" x="287.81" y="112.26"/><rect width="10.66" height="10.66" x="298.47" y="112.26" class="cls-5"/><rect width="10.66" height="10.66" x="309.13" y="112.26"/><rect width="10.66" height="10.66" x="319.79" y="112.26" class="cls-5"/><rect width="10.66" height="10.66" x="330.45" y="112.26"/><rect width="10.66" height="10.66" x="341.11" y="112.26" class="cls-5"/><rect width="10.66" height="10.66" x="351.77" y="112.26"/><rect width="10.66" height="10.66" x="362.43" y="112.26" class="cls-5"/><rect width="10.66" height="10.66" x="373.09" y="112.26"/><rect width="10.66" height="10.66" x="383.75" y="112.26" class="cls-5"/><rect width="10.66" height="10.66" x="394.4" y="112.26"/><rect width="10.66" height="10.66" y="122.92"/><rect width="10.66" height="10.66" x="10.66" y="122.92" class="cls-5"/><rect width="10.66" height="10.66" x="21.32" y="122.92"/><rect width="10.66" height="10.66" x="31.98" y="122.92" class="cls-5"/><rect width="10.66" height="10.66" x="42.64" y="122.92"/><rect width="10.66" height="10.66" x="53.3" y="122.92" class="cls-5"/><rect width="10.66" height="10.66" x="63.96" y="122.92"/><rect width="10.66" height="10.66" x="74.62" y="122.92" class="cls-5"/><rect width="10.66" height="10.66" x="85.28" y="122.92"/><rect width="10.66" height="10.66" x="95.94" y="122.92" class="cls-5"/><rect width="10.66" height="10.66" x="106.6" y="122.92"/><rect width="10.66" height="10.66" x="117.25" y="122.92" class="cls-5"/><rect width="10.66" height="10.66" x="127.92" y="122.92"/><rect width="10.66" height="10.66" x="138.57" y="122.92" class="cls-5"/><rect width="10.66" height="10.66" x="149.23" y="122.92"/><rect width="10.66" height="10.66" x="159.89" y="122.92" class="cls-5"/><rect width="10.66" height="10.66" x="170.55" y="122.92"/><rect width="10.66" height="10.66" x="181.21" y="122.92" class="cls-5"/><rect width="10.66" height="10.66" x="191.87" y="122.92"/><rect width="10.66" height="10.66" x="202.53" y="122.92" class="cls-5"/><rect width="10.66" height="10.66" x="213.19" y="122.92"/><rect width="10.66" height="10.66" x="223.85" y="122.92" class="cls-5"/><rect width="10.66" height="10.66" x="234.51" y="122.92"/><rect width="10.66" height="10.66" x="245.17" y="122.92" class="cls-5"/><rect width="10.66" height="10.66" x="255.83" y="122.92"/><rect width="10.66" height="10.66" x="266.49" y="122.92" class="cls-5"/><rect width="10.66" height="10.66" x="277.15" y="122.92"/><rect width="10.66" height="10.66" x="287.81" y="122.92" class="cls-5"/><rect width="10.66" height="10.66" x="298.47" y="122.92"/><rect width="10.66" height="10.66" x="309.13" y="122.92" class="cls-5"/><rect width="10.66" height="10.66" x="319.79" y="122.92"/><rect width="10.66" height="10.66" x="330.45" y="122.92" class="cls-5"/><rect width="10.66" height="10.66" x="341.11" y="122.92"/><rect width="10.66" height="10.66" x="351.77" y="122.92" class="cls-5"/><rect width="10.66" height="10.66" x="362.43" y="122.92"/><rect width="10.66" height="10.66" x="373.09" y="122.92" class="cls-5"/><rect width="10.66" height="10.66" x="383.75" y="122.92"/><rect width="10.66" height="10.66" x="10.66" y="133.58"/><rect width="10.66" height="10.66" x="21.32" y="133.58" class="cls-5"/><rect width="10.66" height="10.66" x="31.98" y="133.58"/><rect width="10.66" height="10.66" x="42.64" y="133.58" class="cls-5"/><rect width="10.66" height="10.66" x="53.3" y="133.58"/><rect width="10.66" height="10.66" x="63.96" y="133.58" class="cls-5"/><rect width="10.66" height="10.66" x="74.62" y="133.58"/><rect width="10.66" height="10.66" x="85.28" y="133.58" class="cls-5"/><rect width="10.66" height="10.66" x="95.94" y="133.58"/><rect width="10.66" height="10.66" x="106.6" y="133.58" class="cls-5"/><rect width="10.66" height="10.66" x="117.25" y="133.58"/><rect width="10.66" height="10.66" x="127.92" y="133.58" class="cls-5"/><rect width="10.66" height="10.66" x="138.57" y="133.58"/><rect width="10.66" height="10.66" x="149.23" y="133.58" class="cls-5"/><rect width="10.66" height="10.66" x="159.89" y="133.58"/><rect width="10.66" height="10.66" x="170.55" y="133.58" class="cls-5"/><rect width="10.66" height="10.66" x="181.21" y="133.58"/><rect width="10.66" height="10.66" x="191.87" y="133.58" class="cls-5"/><rect width="10.66" height="10.66" x="202.53" y="133.58"/><rect width="10.66" height="10.66" x="213.19" y="133.58" class="cls-5"/><rect width="10.66" height="10.66" x="223.85" y="133.58"/><rect width="10.66" height="10.66" x="234.51" y="133.58" class="cls-5"/><rect width="10.66" height="10.66" x="245.17" y="133.58"/><rect width="10.66" height="10.66" x="255.83" y="133.58" class="cls-5"/><rect width="10.66" height="10.66" x="266.49" y="133.58"/><rect width="10.66" height="10.66" x="277.15" y="133.58" class="cls-5"/><rect width="10.66" height="10.66" x="287.81" y="133.58"/><rect width="10.66" height="10.66" x="298.47" y="133.58" class="cls-5"/><rect width="10.66" height="10.66" x="309.13" y="133.58"/><rect width="10.66" height="10.66" x="319.79" y="133.58" class="cls-5"/><rect width="10.66" height="10.66" x="330.45" y="133.58"/><rect width="10.66" height="10.66" x="341.11" y="133.58" class="cls-5"/><rect width="10.66" height="10.66" x="351.77" y="133.58"/><rect width="10.66" height="10.66" x="362.43" y="133.58" class="cls-5"/><rect width="10.66" height="10.66" x="373.09" y="133.58"/><rect width="10.66" height="10.66" x="383.75" y="133.58" class="cls-5"/><rect width="10.66" height="10.66" x="394.4" y="133.58"/><rect width="10.66" height="10.66" y="144.24"/><rect width="10.66" height="10.66" x="10.66" y="144.24" class="cls-5"/><rect width="10.66" height="10.66" x="21.32" y="144.24"/><rect width="10.66" height="10.66" x="31.98" y="144.24" class="cls-5"/><rect width="10.66" height="10.66" x="42.64" y="144.24"/><rect width="10.66" height="10.66" x="53.3" y="144.24" class="cls-5"/><rect width="10.66" height="10.66" x="63.96" y="144.24"/><rect width="10.66" height="10.66" x="74.62" y="144.24" class="cls-5"/><rect width="10.66" height="10.66" x="85.28" y="144.24"/><rect width="10.66" height="10.66" x="95.94" y="144.24" class="cls-5"/><rect width="10.66" height="10.66" x="106.6" y="144.24"/><rect width="10.66" height="10.66" x="117.25" y="144.24" class="cls-5"/><rect width="10.66" height="10.66" x="127.92" y="144.24"/><rect width="10.66" height="10.66" x="138.57" y="144.24" class="cls-5"/><rect width="10.66" height="10.66" x="149.23" y="144.24"/><rect width="10.66" height="10.66" x="159.89" y="144.24" class="cls-5"/><rect width="10.66" height="10.66" x="170.55" y="144.24"/><rect width="10.66" height="10.66" x="181.21" y="144.24" class="cls-5"/><rect width="10.66" height="10.66" x="191.87" y="144.24"/><rect width="10.66" height="10.66" x="202.53" y="144.24" class="cls-5"/><rect width="10.66" height="10.66" x="213.19" y="144.24"/><rect width="10.66" height="10.66" x="223.85" y="144.24" class="cls-5"/><rect width="10.66" height="10.66" x="234.51" y="144.24"/><rect width="10.66" height="10.66" x="245.17" y="144.24" class="cls-5"/><rect width="10.66" height="10.66" x="255.83" y="144.24"/><rect width="10.66" height="10.66" x="266.49" y="144.24" class="cls-5"/><rect width="10.66" height="10.66" x="277.15" y="144.24"/><rect width="10.66" height="10.66" x="287.81" y="144.24" class="cls-5"/><rect width="10.66" height="10.66" x="298.47" y="144.24"/><rect width="10.66" height="10.66" x="309.13" y="144.24" class="cls-5"/><rect width="10.66" height="10.66" x="319.79" y="144.24"/><rect width="10.66" height="10.66" x="330.45" y="144.24" class="cls-5"/><rect width="10.66" height="10.66" x="341.11" y="144.24"/><rect width="10.66" height="10.66" x="351.77" y="144.24" class="cls-5"/><rect width="10.66" height="10.66" x="362.43" y="144.24"/><rect width="10.66" height="10.66" x="373.09" y="144.24" class="cls-5"/><rect width="10.66" height="10.66" x="383.75" y="144.24"/><rect width="10.66" height="10.66" x="10.66" y="154.9"/><rect width="10.66" height="10.66" x="21.32" y="154.9" class="cls-5"/><rect width="10.66" height="10.66" x="31.98" y="154.9"/><rect width="10.66" height="10.66" x="42.64" y="154.9" class="cls-5"/><rect width="10.66" height="10.66" x="53.3" y="154.9"/><rect width="10.66" height="10.66" x="63.96" y="154.9" class="cls-5"/><rect width="10.66" height="10.66" x="74.62" y="154.9"/><rect width="10.66" height="10.66" x="85.28" y="154.9" class="cls-5"/><rect width="10.66" height="10.66" x="95.94" y="154.9"/><rect width="10.66" height="10.66" x="106.6" y="154.9" class="cls-5"/><rect width="10.66" height="10.66" x="117.25" y="154.9"/><rect width="10.66" height="10.66" x="127.92" y="154.9" class="cls-5"/><rect width="10.66" height="10.66" x="138.57" y="154.9"/><rect width="10.66" height="10.66" x="149.23" y="154.9" class="cls-5"/><rect width="10.66" height="10.66" x="159.89" y="154.9"/><rect width="10.66" height="10.66" x="170.55" y="154.9" class="cls-5"/><rect width="10.66" height="10.66" x="181.21" y="154.9"/><rect width="10.66" height="10.66" x="191.87" y="154.9" class="cls-5"/><rect width="10.66" height="10.66" x="202.53" y="154.9"/><rect width="10.66" height="10.66" x="213.19" y="154.9" class="cls-5"/><rect width="10.66" height="10.66" x="223.85" y="154.9"/><rect width="10.66" height="10.66" x="234.51" y="154.9" class="cls-5"/><rect width="10.66" height="10.66" x="245.17" y="154.9"/><rect width="10.66" height="10.66" x="255.83" y="154.9" class="cls-5"/><rect width="10.66" height="10.66" x="266.49" y="154.9"/><rect width="10.66" height="10.66" x="277.15" y="154.9" class="cls-5"/><rect width="10.66" height="10.66" x="287.81" y="154.9"/><rect width="10.66" height="10.66" x="298.47" y="154.9" class="cls-5"/><rect width="10.66" height="10.66" x="309.13" y="154.9"/><rect width="10.66" height="10.66" x="319.79" y="154.9" class="cls-5"/><rect width="10.66" height="10.66" x="330.45" y="154.9"/><rect width="10.66" height="10.66" x="341.11" y="154.9" class="cls-5"/><rect width="10.66" height="10.66" x="351.77" y="154.9"/><rect width="10.66" height="10.66" x="362.43" y="154.9" class="cls-5"/><rect width="10.66" height="10.66" x="373.09" y="154.9"/><rect width="10.66" height="10.66" x="383.75" y="154.9" class="cls-5"/><rect width="10.66" height="10.66" x="394.4" y="154.9"/><rect width="10.66" height="10.66" y="165.56"/><rect width="10.66" height="10.66" x="10.66" y="165.56" class="cls-5"/><rect width="10.66" height="10.66" x="21.32" y="165.56"/><rect width="10.66" height="10.66" x="31.98" y="165.56" class="cls-5"/><rect width="10.66" height="10.66" x="42.64" y="165.56"/><rect width="10.66" height="10.66" x="53.3" y="165.56" class="cls-5"/><rect width="10.66" height="10.66" x="63.96" y="165.56"/><rect width="10.66" height="10.66" x="74.62" y="165.56" class="cls-5"/><rect width="10.66" height="10.66" x="85.28" y="165.56"/><rect width="10.66" height="10.66" x="95.94" y="165.56" class="cls-5"/><rect width="10.66" height="10.66" x="106.6" y="165.56"/><rect width="10.66" height="10.66" x="117.25" y="165.56" class="cls-5"/><rect width="10.66" height="10.66" x="127.92" y="165.56"/><rect width="10.66" height="10.66" x="138.57" y="165.56" class="cls-5"/><rect width="10.66" height="10.66" x="149.23" y="165.56"/><rect width="10.66" height="10.66" x="159.89" y="165.56" class="cls-5"/><rect width="10.66" height="10.66" x="170.55" y="165.56"/><rect width="10.66" height="10.66" x="181.21" y="165.56" class="cls-5"/><rect width="10.66" height="10.66" x="191.87" y="165.56"/><rect width="10.66" height="10.66" x="202.53" y="165.56" class="cls-5"/><rect width="10.66" height="10.66" x="213.19" y="165.56"/><rect width="10.66" height="10.66" x="223.85" y="165.56" class="cls-5"/><rect width="10.66" height="10.66" x="234.51" y="165.56"/><rect width="10.66" height="10.66" x="245.17" y="165.56" class="cls-5"/><rect width="10.66" height="10.66" x="255.83" y="165.56"/><rect width="10.66" height="10.66" x="266.49" y="165.56" class="cls-5"/><rect width="10.66" height="10.66" x="277.15" y="165.56"/><rect width="10.66" height="10.66" x="287.81" y="165.56" class="cls-5"/><rect width="10.66" height="10.66" x="298.47" y="165.56"/><rect width="10.66" height="10.66" x="309.13" y="165.56" class="cls-5"/><rect width="10.66" height="10.66" x="319.79" y="165.56"/><rect width="10.66" height="10.66" x="330.45" y="165.56" class="cls-5"/><rect width="10.66" height="10.66" x="341.11" y="165.56"/><rect width="10.66" height="10.66" x="351.77" y="165.56" class="cls-5"/><rect width="10.66" height="10.66" x="362.43" y="165.56"/><rect width="10.66" height="10.66" x="373.09" y="165.56" class="cls-5"/><rect width="10.66" height="10.66" x="383.75" y="165.56"/><rect width="10.66" height="10.66" x="10.66" y="176.22"/><rect width="10.66" height="10.66" x="21.32" y="176.22" class="cls-5"/><rect width="10.66" height="10.66" x="31.98" y="176.22"/><rect width="10.66" height="10.66" x="42.64" y="176.22" class="cls-5"/><rect width="10.66" height="10.66" x="53.3" y="176.22"/><rect width="10.66" height="10.66" x="63.96" y="176.22" class="cls-5"/><rect width="10.66" height="10.66" x="74.62" y="176.22"/><rect width="10.66" height="10.66" x="85.28" y="176.22" class="cls-5"/><rect width="10.66" height="10.66" x="95.94" y="176.22"/><rect width="10.66" height="10.66" x="106.6" y="176.22" class="cls-5"/><rect width="10.66" height="10.66" x="117.25" y="176.22"/><rect width="10.66" height="10.66" x="127.92" y="176.22" class="cls-5"/><rect width="10.66" height="10.66" x="138.57" y="176.22"/><rect width="10.66" height="10.66" x="149.23" y="176.22" class="cls-5"/><rect width="10.66" height="10.66" x="159.89" y="176.22"/><rect width="10.66" height="10.66" x="170.55" y="176.22" class="cls-5"/><rect width="10.66" height="10.66" x="181.21" y="176.22"/><rect width="10.66" height="10.66" x="191.87" y="176.22" class="cls-5"/><rect width="10.66" height="10.66" x="202.53" y="176.22"/><rect width="10.66" height="10.66" x="213.19" y="176.22" class="cls-5"/><rect width="10.66" height="10.66" x="223.85" y="176.22"/><rect width="10.66" height="10.66" x="234.51" y="176.22" class="cls-5"/><rect width="10.66" height="10.66" x="245.17" y="176.22"/><rect width="10.66" height="10.66" x="255.83" y="176.22" class="cls-5"/><rect width="10.66" height="10.66" x="266.49" y="176.22"/><rect width="10.66" height="10.66" x="277.15" y="176.22" class="cls-5"/><rect width="10.66" height="10.66" x="287.81" y="176.22"/><rect width="10.66" height="10.66" x="298.47" y="176.22" class="cls-5"/><rect width="10.66" height="10.66" x="309.13" y="176.22"/><rect width="10.66" height="10.66" x="319.79" y="176.22" class="cls-5"/><rect width="10.66" height="10.66" x="330.45" y="176.22"/><rect width="10.66" height="10.66" x="341.11" y="176.22" class="cls-5"/><rect width="10.66" height="10.66" x="351.77" y="176.22"/><rect width="10.66" height="10.66" x="362.43" y="176.22" class="cls-5"/><rect width="10.66" height="10.66" x="373.09" y="176.22"/><rect width="10.66" height="10.66" x="383.75" y="176.22" class="cls-5"/><rect width="10.66" height="10.66" x="394.4" y="176.22"/><rect width="10.66" height="10.66" y="186.88"/><rect width="10.66" height="10.66" x="10.66" y="186.88" class="cls-5"/><rect width="10.66" height="10.66" x="21.32" y="186.88"/><rect width="10.66" height="10.66" x="31.98" y="186.88" class="cls-5"/><rect width="10.66" height="10.66" x="42.64" y="186.88"/><rect width="10.66" height="10.66" x="53.3" y="186.88" class="cls-5"/><rect width="10.66" height="10.66" x="63.96" y="186.88"/><rect width="10.66" height="10.66" x="74.62" y="186.88" class="cls-5"/><rect width="10.66" height="10.66" x="85.28" y="186.88"/><rect width="10.66" height="10.66" x="95.94" y="186.88" class="cls-5"/><rect width="10.66" height="10.66" x="106.6" y="186.88"/><rect width="10.66" height="10.66" x="117.25" y="186.88" class="cls-5"/><rect width="10.66" height="10.66" x="127.92" y="186.88"/><rect width="10.66" height="10.66" x="138.57" y="186.88" class="cls-5"/><rect width="10.66" height="10.66" x="149.23" y="186.88"/><rect width="10.66" height="10.66" x="159.89" y="186.88" class="cls-5"/><rect width="10.66" height="10.66" x="170.55" y="186.88"/><rect width="10.66" height="10.66" x="181.21" y="186.88" class="cls-5"/><rect width="10.66" height="10.66" x="191.87" y="186.88"/><rect width="10.66" height="10.66" x="202.53" y="186.88" class="cls-5"/><rect width="10.66" height="10.66" x="213.19" y="186.88"/><rect width="10.66" height="10.66" x="223.85" y="186.88" class="cls-5"/><rect width="10.66" height="10.66" x="234.51" y="186.88"/><rect width="10.66" height="10.66" x="245.17" y="186.88" class="cls-5"/><rect width="10.66" height="10.66" x="255.83" y="186.88"/><rect width="10.66" height="10.66" x="266.49" y="186.88" class="cls-5"/><rect width="10.66" height="10.66" x="277.15" y="186.88"/><rect width="10.66" height="10.66" x="287.81" y="186.88" class="cls-5"/><rect width="10.66" height="10.66" x="298.47" y="186.88"/><rect width="10.66" height="10.66" x="309.13" y="186.88" class="cls-5"/><rect width="10.66" height="10.66" x="319.79" y="186.88"/><rect width="10.66" height="10.66" x="330.45" y="186.88" class="cls-5"/><rect width="10.66" height="10.66" x="341.11" y="186.88"/><rect width="10.66" height="10.66" x="351.77" y="186.88" class="cls-5"/><rect width="10.66" height="10.66" x="362.43" y="186.88"/><rect width="10.66" height="10.66" x="373.09" y="186.88" class="cls-5"/><rect width="10.66" height="10.66" x="383.75" y="186.88"/><rect width="10.66" height="10.66" x="10.66" y="197.54"/><rect width="10.66" height="10.66" x="21.32" y="197.54" class="cls-5"/><rect width="10.66" height="10.66" x="31.98" y="197.54"/><rect width="10.66" height="10.66" x="42.64" y="197.54" class="cls-5"/><rect width="10.66" height="10.66" x="53.3" y="197.54"/><rect width="10.66" height="10.66" x="63.96" y="197.54" class="cls-5"/><rect width="10.66" height="10.66" x="74.62" y="197.54"/><rect width="10.66" height="10.66" x="85.28" y="197.54" class="cls-5"/><rect width="10.66" height="10.66" x="95.94" y="197.54"/><rect width="10.66" height="10.66" x="106.6" y="197.54" class="cls-5"/><rect width="10.66" height="10.66" x="117.25" y="197.54"/><rect width="10.66" height="10.66" x="127.92" y="197.54" class="cls-5"/><rect width="10.66" height="10.66" x="138.57" y="197.54"/><rect width="10.66" height="10.66" x="149.23" y="197.54" class="cls-5"/><rect width="10.66" height="10.66" x="159.89" y="197.54"/><rect width="10.66" height="10.66" x="170.55" y="197.54" class="cls-5"/><rect width="10.66" height="10.66" x="181.21" y="197.54"/><rect width="10.66" height="10.66" x="191.87" y="197.54" class="cls-5"/><rect width="10.66" height="10.66" x="202.53" y="197.54"/><rect width="10.66" height="10.66" x="213.19" y="197.54" class="cls-5"/><rect width="10.66" height="10.66" x="223.85" y="197.54"/><rect width="10.66" height="10.66" x="234.51" y="197.54" class="cls-5"/><rect width="10.66" height="10.66" x="245.17" y="197.54"/><rect width="10.66" height="10.66" x="255.83" y="197.54" class="cls-5"/><rect width="10.66" height="10.66" x="266.49" y="197.54"/><rect width="10.66" height="10.66" x="277.15" y="197.54" class="cls-5"/><rect width="10.66" height="10.66" x="287.81" y="197.54"/><rect width="10.66" height="10.66" x="298.47" y="197.54" class="cls-5"/><rect width="10.66" height="10.66" x="309.13" y="197.54"/><rect width="10.66" height="10.66" x="319.79" y="197.54" class="cls-5"/><rect width="10.66" height="10.66" x="330.45" y="197.54"/><rect width="10.66" height="10.66" x="341.11" y="197.54" class="cls-5"/><rect width="10.66" height="10.66" x="351.77" y="197.54"/><rect width="10.66" height="10.66" x="362.43" y="197.54" class="cls-5"/><rect width="10.66" height="10.66" x="373.09" y="197.54"/><rect width="10.66" height="10.66" x="383.75" y="197.54" class="cls-5"/><rect width="10.66" height="10.66" x="394.4" y="197.54"/><rect width="10.66" height="10.66" y="208.2"/><rect width="10.66" height="10.66" x="10.66" y="208.2" class="cls-5"/><rect width="10.66" height="10.66" x="21.32" y="208.2"/><rect width="10.66" height="10.66" x="31.98" y="208.2" class="cls-5"/><rect width="10.66" height="10.66" x="42.64" y="208.2"/><rect width="10.66" height="10.66" x="53.3" y="208.2" class="cls-5"/><rect width="10.66" height="10.66" x="63.96" y="208.2"/><rect width="10.66" height="10.66" x="74.62" y="208.2" class="cls-5"/><rect width="10.66" height="10.66" x="85.28" y="208.2"/><rect width="10.66" height="10.66" x="95.94" y="208.2" class="cls-5"/><rect width="10.66" height="10.66" x="106.6" y="208.2"/><rect width="10.66" height="10.66" x="117.25" y="208.2" class="cls-5"/><rect width="10.66" height="10.66" x="127.92" y="208.2"/><rect width="10.66" height="10.66" x="138.57" y="208.2" class="cls-5"/><rect width="10.66" height="10.66" x="149.23" y="208.2"/><rect width="10.66" height="10.66" x="159.89" y="208.2" class="cls-5"/><rect width="10.66" height="10.66" x="170.55" y="208.2"/><rect width="10.66" height="10.66" x="181.21" y="208.2" class="cls-5"/><rect width="10.66" height="10.66" x="191.87" y="208.2"/><rect width="10.66" height="10.66" x="202.53" y="208.2" class="cls-5"/><rect width="10.66" height="10.66" x="213.19" y="208.2"/><rect width="10.66" height="10.66" x="223.85" y="208.2" class="cls-5"/><rect width="10.66" height="10.66" x="234.51" y="208.2"/><rect width="10.66" height="10.66" x="245.17" y="208.2" class="cls-5"/><rect width="10.66" height="10.66" x="255.83" y="208.2"/><rect width="10.66" height="10.66" x="266.49" y="208.2" class="cls-5"/><rect width="10.66" height="10.66" x="277.15" y="208.2"/><rect width="10.66" height="10.66" x="287.81" y="208.2" class="cls-5"/><rect width="10.66" height="10.66" x="298.47" y="208.2"/><rect width="10.66" height="10.66" x="309.13" y="208.2" class="cls-5"/><rect width="10.66" height="10.66" x="319.79" y="208.2"/><rect width="10.66" height="10.66" x="330.45" y="208.2" class="cls-5"/><rect width="10.66" height="10.66" x="341.11" y="208.2"/><rect width="10.66" height="10.66" x="351.77" y="208.2" class="cls-5"/><rect width="10.66" height="10.66" x="362.43" y="208.2"/><rect width="10.66" height="10.66" x="373.09" y="208.2" class="cls-5"/><rect width="10.66" height="10.66" x="383.75" y="208.2"/><rect width="10.66" height="10.66" x="10.66" y="218.86"/><rect width="10.66" height="10.66" x="21.32" y="218.86" class="cls-5"/><rect width="10.66" height="10.66" x="31.98" y="218.86"/><rect width="10.66" height="10.66" x="42.64" y="218.86" class="cls-5"/><rect width="10.66" height="10.66" x="53.3" y="218.86"/><rect width="10.66" height="10.66" x="63.96" y="218.86" class="cls-5"/><rect width="10.66" height="10.66" x="74.62" y="218.86"/><rect width="10.66" height="10.66" x="85.28" y="218.86" class="cls-5"/><rect width="10.66" height="10.66" x="95.94" y="218.86"/><rect width="10.66" height="10.66" x="106.6" y="218.86" class="cls-5"/><rect width="10.66" height="10.66" x="117.25" y="218.86"/><rect width="10.66" height="10.66" x="127.92" y="218.86" class="cls-5"/><rect width="10.66" height="10.66" x="138.57" y="218.86"/><rect width="10.66" height="10.66" x="149.23" y="218.86" class="cls-5"/><rect width="10.66" height="10.66" x="159.89" y="218.86"/><rect width="10.66" height="10.66" x="170.55" y="218.86" class="cls-5"/><rect width="10.66" height="10.66" x="181.21" y="218.86"/><rect width="10.66" height="10.66" x="191.87" y="218.86" class="cls-5"/><rect width="10.66" height="10.66" x="202.53" y="218.86"/><rect width="10.66" height="10.66" x="213.19" y="218.86" class="cls-5"/><rect width="10.66" height="10.66" x="223.85" y="218.86"/><rect width="10.66" height="10.66" x="234.51" y="218.86" class="cls-5"/><rect width="10.66" height="10.66" x="245.17" y="218.86"/><rect width="10.66" height="10.66" x="255.83" y="218.86" class="cls-5"/><rect width="10.66" height="10.66" x="266.49" y="218.86"/><rect width="10.66" height="10.66" x="277.15" y="218.86" class="cls-5"/><rect width="10.66" height="10.66" x="287.81" y="218.86"/><rect width="10.66" height="10.66" x="298.47" y="218.86" class="cls-5"/><rect width="10.66" height="10.66" x="309.13" y="218.86"/><rect width="10.66" height="10.66" x="319.79" y="218.86" class="cls-5"/><rect width="10.66" height="10.66" x="330.45" y="218.86"/><rect width="10.66" height="10.66" x="341.11" y="218.86" class="cls-5"/><rect width="10.66" height="10.66" x="351.77" y="218.86"/><rect width="10.66" height="10.66" x="362.43" y="218.86" class="cls-5"/><rect width="10.66" height="10.66" x="373.09" y="218.86"/><rect width="10.66" height="10.66" x="383.75" y="218.86" class="cls-5"/><rect width="10.66" height="10.66" x="394.4" y="218.86"/><rect width="10.66" height="10.66" y="229.52"/><rect width="10.66" height="10.66" x="10.66" y="229.52" class="cls-5"/><rect width="10.66" height="10.66" x="21.32" y="229.52"/><rect width="10.66" height="10.66" x="31.98" y="229.52" class="cls-5"/><rect width="10.66" height="10.66" x="42.64" y="229.52"/><rect width="10.66" height="10.66" x="53.3" y="229.52" class="cls-5"/><rect width="10.66" height="10.66" x="63.96" y="229.52"/><rect width="10.66" height="10.66" x="74.62" y="229.52" class="cls-5"/><rect width="10.66" height="10.66" x="85.28" y="229.52"/><rect width="10.66" height="10.66" x="95.94" y="229.52" class="cls-5"/><rect width="10.66" height="10.66" x="106.6" y="229.52"/><rect width="10.66" height="10.66" x="117.25" y="229.52" class="cls-5"/><rect width="10.66" height="10.66" x="127.92" y="229.52"/><rect width="10.66" height="10.66" x="138.57" y="229.52" class="cls-5"/><rect width="10.66" height="10.66" x="149.23" y="229.52"/><rect width="10.66" height="10.66" x="159.89" y="229.52" class="cls-5"/><rect width="10.66" height="10.66" x="170.55" y="229.52"/><rect width="10.66" height="10.66" x="181.21" y="229.52" class="cls-5"/><rect width="10.66" height="10.66" x="191.87" y="229.52"/><rect width="10.66" height="10.66" x="202.53" y="229.52" class="cls-5"/><rect width="10.66" height="10.66" x="213.19" y="229.52"/><rect width="10.66" height="10.66" x="223.85" y="229.52" class="cls-5"/><rect width="10.66" height="10.66" x="234.51" y="229.52"/><rect width="10.66" height="10.66" x="245.17" y="229.52" class="cls-5"/><rect width="10.66" height="10.66" x="255.83" y="229.52"/><rect width="10.66" height="10.66" x="266.49" y="229.52" class="cls-5"/><rect width="10.66" height="10.66" x="277.15" y="229.52"/><rect width="10.66" height="10.66" x="287.81" y="229.52" class="cls-5"/><rect width="10.66" height="10.66" x="298.47" y="229.52"/><rect width="10.66" height="10.66" x="309.13" y="229.52" class="cls-5"/><rect width="10.66" height="10.66" x="319.79" y="229.52"/><rect width="10.66" height="10.66" x="330.45" y="229.52" class="cls-5"/><rect width="10.66" height="10.66" x="341.11" y="229.52"/><rect width="10.66" height="10.66" x="351.77" y="229.52" class="cls-5"/><rect width="10.66" height="10.66" x="362.43" y="229.52"/><rect width="10.66" height="10.66" x="373.09" y="229.52" class="cls-5"/><rect width="10.66" height="10.66" x="383.75" y="229.52"/><rect width="10.66" height="10.66" x="10.66" y="240.19"/><rect width="10.66" height="10.66" x="21.32" y="240.19" class="cls-5"/><rect width="10.66" height="10.66" x="31.98" y="240.19"/><rect width="10.66" height="10.66" x="42.64" y="240.19" class="cls-5"/><rect width="10.66" height="10.66" x="53.3" y="240.19"/><rect width="10.66" height="10.66" x="63.96" y="240.19" class="cls-5"/><rect width="10.66" height="10.66" x="74.62" y="240.19"/><rect width="10.66" height="10.66" x="85.28" y="240.19" class="cls-5"/><rect width="10.66" height="10.66" x="95.94" y="240.19"/><rect width="10.66" height="10.66" x="106.6" y="240.19" class="cls-5"/><rect width="10.66" height="10.66" x="117.25" y="240.19"/><rect width="10.66" height="10.66" x="127.92" y="240.19" class="cls-5"/><rect width="10.66" height="10.66" x="138.57" y="240.19"/><rect width="10.66" height="10.66" x="149.23" y="240.19" class="cls-5"/><rect width="10.66" height="10.66" x="159.89" y="240.19"/><rect width="10.66" height="10.66" x="170.55" y="240.19" class="cls-5"/><rect width="10.66" height="10.66" x="181.21" y="240.19"/><rect width="10.66" height="10.66" x="191.87" y="240.19" class="cls-5"/><rect width="10.66" height="10.66" x="202.53" y="240.19"/><rect width="10.66" height="10.66" x="213.19" y="240.19" class="cls-5"/><rect width="10.66" height="10.66" x="223.85" y="240.19"/><rect width="10.66" height="10.66" x="234.51" y="240.19" class="cls-5"/><rect width="10.66" height="10.66" x="245.17" y="240.19"/><rect width="10.66" height="10.66" x="255.83" y="240.19" class="cls-5"/><rect width="10.66" height="10.66" x="266.49" y="240.19"/><rect width="10.66" height="10.66" x="277.15" y="240.19" class="cls-5"/><rect width="10.66" height="10.66" x="287.81" y="240.19"/><rect width="10.66" height="10.66" x="298.47" y="240.19" class="cls-5"/><rect width="10.66" height="10.66" x="309.13" y="240.19"/><rect width="10.66" height="10.66" x="319.79" y="240.19" class="cls-5"/><rect width="10.66" height="10.66" x="330.45" y="240.19"/><rect width="10.66" height="10.66" x="341.11" y="240.19" class="cls-5"/><rect width="10.66" height="10.66" x="351.77" y="240.19"/><rect width="10.66" height="10.66" x="362.43" y="240.19" class="cls-5"/><rect width="10.66" height="10.66" x="373.09" y="240.19"/><rect width="10.66" height="10.66" x="383.75" y="240.19" class="cls-5"/><rect width="10.66" height="10.66" x="394.4" y="240.19"/><rect width="10.66" height="10.66" y="250.85"/><rect width="10.66" height="10.66" x="10.66" y="250.85" class="cls-5"/><rect width="10.66" height="10.66" x="21.32" y="250.85"/><rect width="10.66" height="10.66" x="31.98" y="250.85" class="cls-5"/><rect width="10.66" height="10.66" x="42.64" y="250.85"/><rect width="10.66" height="10.66" x="53.3" y="250.85" class="cls-5"/><rect width="10.66" height="10.66" x="63.96" y="250.85"/><rect width="10.66" height="10.66" x="74.62" y="250.85" class="cls-5"/><rect width="10.66" height="10.66" x="85.28" y="250.85"/><rect width="10.66" height="10.66" x="95.94" y="250.85" class="cls-5"/><rect width="10.66" height="10.66" x="106.6" y="250.85"/><rect width="10.66" height="10.66" x="117.25" y="250.85" class="cls-5"/><rect width="10.66" height="10.66" x="127.92" y="250.85"/><rect width="10.66" height="10.66" x="138.57" y="250.85" class="cls-5"/><rect width="10.66" height="10.66" x="149.23" y="250.85"/><rect width="10.66" height="10.66" x="159.89" y="250.85" class="cls-5"/><rect width="10.66" height="10.66" x="170.55" y="250.85"/><rect width="10.66" height="10.66" x="181.21" y="250.85" class="cls-5"/><rect width="10.66" height="10.66" x="191.87" y="250.85"/><rect width="10.66" height="10.66" x="202.53" y="250.85" class="cls-5"/><rect width="10.66" height="10.66" x="213.19" y="250.85"/><rect width="10.66" height="10.66" x="223.85" y="250.85" class="cls-5"/><rect width="10.66" height="10.66" x="234.51" y="250.85"/><rect width="10.66" height="10.66" x="245.17" y="250.85" class="cls-5"/><rect width="10.66" height="10.66" x="255.83" y="250.85"/><rect width="10.66" height="10.66" x="266.49" y="250.85" class="cls-5"/><rect width="10.66" height="10.66" x="277.15" y="250.85"/><rect width="10.66" height="10.66" x="287.81" y="250.85" class="cls-5"/><rect width="10.66" height="10.66" x="298.47" y="250.85"/><rect width="10.66" height="10.66" x="309.13" y="250.85" class="cls-5"/><rect width="10.66" height="10.66" x="319.79" y="250.85"/><rect width="10.66" height="10.66" x="330.45" y="250.85" class="cls-5"/><rect width="10.66" height="10.66" x="341.11" y="250.85"/><rect width="10.66" height="10.66" x="351.77" y="250.85" class="cls-5"/><rect width="10.66" height="10.66" x="362.43" y="250.85"/><rect width="10.66" height="10.66" x="373.09" y="250.85" class="cls-5"/><rect width="10.66" height="10.66" x="383.75" y="250.85"/><rect width="10.66" height="10.66" x="10.66" y="261.51"/><rect width="10.66" height="10.66" x="21.32" y="261.51" class="cls-5"/><rect width="10.66" height="10.66" x="31.98" y="261.51"/><rect width="10.66" height="10.66" x="42.64" y="261.51" class="cls-5"/><rect width="10.66" height="10.66" x="53.3" y="261.51"/><rect width="10.66" height="10.66" x="63.96" y="261.51" class="cls-5"/><rect width="10.66" height="10.66" x="74.62" y="261.51"/><rect width="10.66" height="10.66" x="85.28" y="261.51" class="cls-5"/><rect width="10.66" height="10.66" x="95.94" y="261.51"/><rect width="10.66" height="10.66" x="106.6" y="261.51" class="cls-5"/><rect width="10.66" height="10.66" x="117.25" y="261.51"/><rect width="10.66" height="10.66" x="127.92" y="261.51" class="cls-5"/><rect width="10.66" height="10.66" x="138.57" y="261.51"/><rect width="10.66" height="10.66" x="149.23" y="261.51" class="cls-5"/><rect width="10.66" height="10.66" x="159.89" y="261.51"/><rect width="10.66" height="10.66" x="170.55" y="261.51" class="cls-5"/><rect width="10.66" height="10.66" x="181.21" y="261.51"/><rect width="10.66" height="10.66" x="191.87" y="261.51" class="cls-5"/><rect width="10.66" height="10.66" x="202.53" y="261.51"/><rect width="10.66" height="10.66" x="213.19" y="261.51" class="cls-5"/><rect width="10.66" height="10.66" x="223.85" y="261.51"/><rect width="10.66" height="10.66" x="234.51" y="261.51" class="cls-5"/><rect width="10.66" height="10.66" x="245.17" y="261.51"/><rect width="10.66" height="10.66" x="255.83" y="261.51" class="cls-5"/><rect width="10.66" height="10.66" x="266.49" y="261.51"/><rect width="10.66" height="10.66" x="277.15" y="261.51" class="cls-5"/><rect width="10.66" height="10.66" x="287.81" y="261.51"/><rect width="10.66" height="10.66" x="298.47" y="261.51" class="cls-5"/><rect width="10.66" height="10.66" x="309.13" y="261.51"/><rect width="10.66" height="10.66" x="319.79" y="261.51" class="cls-5"/><rect width="10.66" height="10.66" x="330.45" y="261.51"/><rect width="10.66" height="10.66" x="341.11" y="261.51" class="cls-5"/><rect width="10.66" height="10.66" x="351.77" y="261.51"/><rect width="10.66" height="10.66" x="362.43" y="261.51" class="cls-5"/><rect width="10.66" height="10.66" x="373.09" y="261.51"/><rect width="10.66" height="10.66" x="383.75" y="261.51" class="cls-5"/><rect width="10.66" height="10.66" x="394.4" y="261.51"/><rect width="10.66" height="10.66" y="272.17"/><rect width="10.66" height="10.66" x="10.66" y="272.17" class="cls-5"/><rect width="10.66" height="10.66" x="21.32" y="272.17"/><rect width="10.66" height="10.66" x="31.98" y="272.17" class="cls-5"/><rect width="10.66" height="10.66" x="42.64" y="272.17"/><rect width="10.66" height="10.66" x="53.3" y="272.17" class="cls-5"/><rect width="10.66" height="10.66" x="63.96" y="272.17"/><rect width="10.66" height="10.66" x="74.62" y="272.17" class="cls-5"/><rect width="10.66" height="10.66" x="85.28" y="272.17"/><rect width="10.66" height="10.66" x="95.94" y="272.17" class="cls-5"/><rect width="10.66" height="10.66" x="106.6" y="272.17"/><rect width="10.66" height="10.66" x="117.25" y="272.17" class="cls-5"/><rect width="10.66" height="10.66" x="127.92" y="272.17"/><rect width="10.66" height="10.66" x="138.57" y="272.17" class="cls-5"/><rect width="10.66" height="10.66" x="149.23" y="272.17"/><rect width="10.66" height="10.66" x="159.89" y="272.17" class="cls-5"/><rect width="10.66" height="10.66" x="170.55" y="272.17"/><rect width="10.66" height="10.66" x="181.21" y="272.17" class="cls-5"/><rect width="10.66" height="10.66" x="191.87" y="272.17"/><rect width="10.66" height="10.66" x="202.53" y="272.17" class="cls-5"/><rect width="10.66" height="10.66" x="213.19" y="272.17"/><rect width="10.66" height="10.66" x="223.85" y="272.17" class="cls-5"/><rect width="10.66" height="10.66" x="234.51" y="272.17"/><rect width="10.66" height="10.66" x="245.17" y="272.17" class="cls-5"/><rect width="10.66" height="10.66" x="255.83" y="272.17"/><rect width="10.66" height="10.66" x="266.49" y="272.17" class="cls-5"/><rect width="10.66" height="10.66" x="277.15" y="272.17"/><rect width="10.66" height="10.66" x="287.81" y="272.17" class="cls-5"/><rect width="10.66" height="10.66" x="298.47" y="272.17"/><rect width="10.66" height="10.66" x="309.13" y="272.17" class="cls-5"/><rect width="10.66" height="10.66" x="319.79" y="272.17"/><rect width="10.66" height="10.66" x="330.45" y="272.17" class="cls-5"/><rect width="10.66" height="10.66" x="341.11" y="272.17"/><rect width="10.66" height="10.66" x="351.77" y="272.17" class="cls-5"/><rect width="10.66" height="10.66" x="362.43" y="272.17"/><rect width="10.66" height="10.66" x="373.09" y="272.17" class="cls-5"/><rect width="10.66" height="10.66" x="383.75" y="272.17"/><rect width="10.66" height="10.66" x="10.66" y="282.83"/><rect width="10.66" height="10.66" x="21.32" y="282.83" class="cls-5"/><rect width="10.66" height="10.66" x="31.98" y="282.83"/><rect width="10.66" height="10.66" x="42.64" y="282.83" class="cls-5"/><rect width="10.66" height="10.66" x="53.3" y="282.83"/><rect width="10.66" height="10.66" x="63.96" y="282.83" class="cls-5"/><rect width="10.66" height="10.66" x="74.62" y="282.83"/><rect width="10.66" height="10.66" x="85.28" y="282.83" class="cls-5"/><rect width="10.66" height="10.66" x="95.94" y="282.83"/><rect width="10.66" height="10.66" x="106.6" y="282.83" class="cls-5"/><rect width="10.66" height="10.66" x="117.25" y="282.83"/><rect width="10.66" height="10.66" x="127.92" y="282.83" class="cls-5"/><rect width="10.66" height="10.66" x="138.57" y="282.83"/><rect width="10.66" height="10.66" x="149.23" y="282.83" class="cls-5"/><rect width="10.66" height="10.66" x="159.89" y="282.83"/><rect width="10.66" height="10.66" x="170.55" y="282.83" class="cls-5"/><rect width="10.66" height="10.66" x="181.21" y="282.83"/><rect width="10.66" height="10.66" x="191.87" y="282.83" class="cls-5"/><rect width="10.66" height="10.66" x="202.53" y="282.83"/><rect width="10.66" height="10.66" x="213.19" y="282.83" class="cls-5"/><rect width="10.66" height="10.66" x="223.85" y="282.83"/><rect width="10.66" height="10.66" x="234.51" y="282.83" class="cls-5"/><rect width="10.66" height="10.66" x="245.17" y="282.83"/><rect width="10.66" height="10.66" x="255.83" y="282.83" class="cls-5"/><rect width="10.66" height="10.66" x="266.49" y="282.83"/><rect width="10.66" height="10.66" x="277.15" y="282.83" class="cls-5"/><rect width="10.66" height="10.66" x="287.81" y="282.83"/><rect width="10.66" height="10.66" x="298.47" y="282.83" class="cls-5"/><rect width="10.66" height="10.66" x="309.13" y="282.83"/><rect width="10.66" height="10.66" x="319.79" y="282.83" class="cls-5"/><rect width="10.66" height="10.66" x="330.45" y="282.83"/><rect width="10.66" height="10.66" x="341.11" y="282.83" class="cls-5"/><rect width="10.66" height="10.66" x="351.77" y="282.83"/><rect width="10.66" height="10.66" x="362.43" y="282.83" class="cls-5"/><rect width="10.66" height="10.66" x="373.09" y="282.83"/><rect width="10.66" height="10.66" x="383.75" y="282.83" class="cls-5"/><rect width="10.66" height="10.66" x="394.4" y="282.83"/></g><path d="M153.59,22.25a6.33,6.33,0,1,1-6.32-6.33A6.32,6.32,0,0,1,153.59,22.25Z" class="cls-5"/><path d="M200,14.52a6.32,6.32,0,1,1-6.32-6.33A6.33,6.33,0,0,1,200,14.52Z" class="cls-5"/><path d="M246.32,22.25A6.33,6.33,0,1,1,240,15.92,6.32,6.32,0,0,1,246.32,22.25Z" class="cls-5"/><path d="M153.59,272.57a6.33,6.33,0,1,0-6.32,6.32A6.34,6.34,0,0,0,153.59,272.57Z" class="cls-5"/><path d="M75.93,197.56a6.33,6.33,0,1,0-6.32,6.33A6.33,6.33,0,0,0,75.93,197.56Z" class="cls-5"/><path d="M64.31,144.42A6.33,6.33,0,1,0,58,150.75,6.32,6.32,0,0,0,64.31,144.42Z" class="cls-5"/><path d="M73.45,97.1a6.33,6.33,0,1,0-6.33,6.33A6.33,6.33,0,0,0,73.45,97.1Z" class="cls-5"/><path d="M200,280.3a6.32,6.32,0,1,0-6.32,6.32A6.32,6.32,0,0,0,200,280.3Z" class="cls-5"/><path d="M246.32,272.57a6.33,6.33,0,1,0-6.32,6.32A6.34,6.34,0,0,0,246.32,272.57Z" class="cls-5"/><path d="M318.79,107.36a6.33,6.33,0,1,1,6.33-6.32A6.32,6.32,0,0,1,318.79,107.36Z" class="cls-5"/><path d="M326.52,153.73a6.32,6.32,0,1,1,6.32-6.32A6.32,6.32,0,0,1,326.52,153.73Z" class="cls-5"/><path d="M318.79,200.1a6.33,6.33,0,1,1,6.33-6.33A6.33,6.33,0,0,1,318.79,200.1Z" class="cls-5"/><g class="cls-7"><path d="M392.26,172.26c0,8.05-3.43,18-12.55,18H44.77c-9.12,0-21.14-10-21.14-18V122.65c0-8.05,8.5-17.33,17.61-17.33H376.18c9.12,0,16.08,9.28,16.08,17.33Z" class="cls-5"/><path d="M391.06,172.12c0,8-7.39,14.58-16.5,14.58H40.13c-9.11,0-16.5-6.53-16.5-14.58V122.29c0-8.05,7.39-14.59,16.5-14.59H374.56c9.11,0,16.5,6.54,16.5,14.59Z" class="cls-8"/></g><path d="M92.52,128.23h-22V115.28h62.48v12.95H110.86V183.5H92.52Z"/><path d="M153.08,166l-5.79,17.51H128.35l24.73-68.22H177.2l25.33,68.22h-19.9L176.36,166Zm20.62-11.54L168.64,140c-1.45-4-2.9-9.11-4.1-13.16h-.25c-1.2,4.05-2.41,9.21-3.73,13.16l-4.83,14.47Z"/><path d="M253.19,183.5l-7.35-12.35c-3-4.75-5-8.3-7.24-12.24h-.24A133,133,0,0,1,232,171.15l-6.64,12.35h-21L227.87,149l-22.68-33.71H226.3l7.11,12.45c2.42,4.15,4.23,7.49,6.15,11.34h.25c1.93-4.36,3.49-7.39,5.55-11.34l6.87-12.45h21l-22.92,33.3,24.12,34.92Z"/><path d="M302.77,115.28V183.5H284.44V115.28Z"/></g></g></svg>